<mxfile host="app.diagrams.net" agent="Mozilla/5.0 (X11; Ubuntu; Linux x86_64; rv:136.0) Gecko/20100101 Firefox/136.0" version="26.0.15">
  <diagram name="Page-1" id="dPe-yoAAF0uT67GYots7">
    <mxGraphModel dx="1313" dy="790" grid="1" gridSize="10" guides="1" tooltips="1" connect="1" arrows="1" fold="1" page="1" pageScale="1" pageWidth="850" pageHeight="1100" math="0" shadow="0">
      <root>
        <mxCell id="0" />
        <mxCell id="1" parent="0" />
        <mxCell id="rVGYfOko8amNhe19nSk2-4" value="" style="edgeStyle=orthogonalEdgeStyle;rounded=0;orthogonalLoop=1;jettySize=auto;html=1;shadow=1;fontStyle=1" edge="1" parent="1" source="rVGYfOko8amNhe19nSk2-1" target="rVGYfOko8amNhe19nSk2-3">
          <mxGeometry relative="1" as="geometry" />
        </mxCell>
        <mxCell id="rVGYfOko8amNhe19nSk2-1" value="&lt;span class=&quot;OYPEnA font-feature-liga-off font-feature-clig-off font-feature-calt-off text-decoration-none text-strikethrough-none&quot; style=&quot;color: rgb(0, 0, 0); font-style: normal; font-kerning: normal;&quot;&gt;Translate the following sentence from English to French:&lt;/span&gt;" style="rounded=1;whiteSpace=wrap;html=1;shadow=1;fontStyle=1" vertex="1" parent="1">
          <mxGeometry x="170" y="470" width="200" height="50" as="geometry" />
        </mxCell>
        <mxCell id="rVGYfOko8amNhe19nSk2-5" value="" style="edgeStyle=orthogonalEdgeStyle;rounded=0;orthogonalLoop=1;jettySize=auto;html=1;shadow=1;fontStyle=1" edge="1" parent="1" source="rVGYfOko8amNhe19nSk2-2" target="rVGYfOko8amNhe19nSk2-3">
          <mxGeometry relative="1" as="geometry" />
        </mxCell>
        <mxCell id="rVGYfOko8amNhe19nSk2-2" value="&lt;span class=&quot;OYPEnA font-feature-liga-off font-feature-clig-off font-feature-calt-off text-decoration-none text-strikethrough-none&quot; style=&quot;color: rgb(0, 0, 0); font-style: normal; font-kerning: normal;&quot;&gt;They are listed on the UNESCO World Heritage List.&lt;/span&gt;" style="rounded=1;whiteSpace=wrap;html=1;shadow=1;fontStyle=1" vertex="1" parent="1">
          <mxGeometry x="425" y="470" width="190" height="50" as="geometry" />
        </mxCell>
        <mxCell id="rVGYfOko8amNhe19nSk2-10" value="" style="edgeStyle=orthogonalEdgeStyle;rounded=0;orthogonalLoop=1;jettySize=auto;html=1;shadow=1;fontStyle=1" edge="1" parent="1" source="rVGYfOko8amNhe19nSk2-3" target="rVGYfOko8amNhe19nSk2-9">
          <mxGeometry relative="1" as="geometry" />
        </mxCell>
        <mxCell id="rVGYfOko8amNhe19nSk2-3" value="Translate the following sentence from English to French:&lt;br&gt;They are listed on the UNESCO World Heritage List." style="ellipse;whiteSpace=wrap;html=1;shadow=1;fontStyle=1" vertex="1" parent="1">
          <mxGeometry x="280" y="290" width="240" height="110" as="geometry" />
        </mxCell>
        <mxCell id="rVGYfOko8amNhe19nSk2-6" value="Prompt" style="text;html=1;align=center;verticalAlign=middle;resizable=0;points=[];autosize=1;strokeColor=none;fillColor=none;shadow=1;fontStyle=0" vertex="1" parent="1">
          <mxGeometry x="220" y="530" width="60" height="30" as="geometry" />
        </mxCell>
        <mxCell id="rVGYfOko8amNhe19nSk2-7" value="&lt;div&gt;Source Text&lt;/div&gt;" style="text;html=1;align=center;verticalAlign=middle;resizable=0;points=[];autosize=1;strokeColor=none;fillColor=none;shadow=1;fontStyle=0" vertex="1" parent="1">
          <mxGeometry x="470" y="530" width="90" height="30" as="geometry" />
        </mxCell>
        <mxCell id="rVGYfOko8amNhe19nSk2-8" value="Concatenate" style="text;html=1;align=center;verticalAlign=middle;resizable=0;points=[];autosize=1;strokeColor=none;fillColor=none;shadow=1;fontStyle=0" vertex="1" parent="1">
          <mxGeometry x="356" y="438" width="90" height="30" as="geometry" />
        </mxCell>
        <mxCell id="rVGYfOko8amNhe19nSk2-12" value="" style="edgeStyle=orthogonalEdgeStyle;rounded=0;orthogonalLoop=1;jettySize=auto;html=1;shadow=1;fontStyle=1" edge="1" parent="1" source="rVGYfOko8amNhe19nSk2-9" target="rVGYfOko8amNhe19nSk2-11">
          <mxGeometry relative="1" as="geometry" />
        </mxCell>
        <mxCell id="rVGYfOko8amNhe19nSk2-9" value="Large Language Model" style="rounded=1;whiteSpace=wrap;html=1;shadow=1;fontStyle=1" vertex="1" parent="1">
          <mxGeometry x="200" y="200" width="400" height="60" as="geometry" />
        </mxCell>
        <mxCell id="rVGYfOko8amNhe19nSk2-11" value="&lt;div class=&quot;line-clamp-2&quot;&gt;&lt;div class=&quot;&quot; dir=&quot;auto&quot;&gt;&lt;span class=&quot;&quot;&gt;Ils sont inscrits sur la liste du patrimoine mondial de lâ€™UNESCO.&lt;/span&gt;&lt;/div&gt;&lt;/div&gt;" style="whiteSpace=wrap;html=1;rounded=1;shadow=1;fontStyle=1" vertex="1" parent="1">
          <mxGeometry x="325" y="100" width="150" height="60" as="geometry" />
        </mxCell>
      </root>
    </mxGraphModel>
  </diagram>
</mxfile>
